# xmcd
# 
# Track frame offsets:
#     150
#     22531
#     45415
#     62486
#     78124
#     101690
#     116560
#     136520
#     153712
#     175827
#     191542
#     209144
# 
# Disc length: 3183
# 
# Revision: 1
# Processed by: cddbd v1.5.2PL0 Copyright (c) Steve Scherf et al.
# Submitted via: fre:ac v1.0.27
# 
DISCID=900c6d0c
DTITLE=Paul Mark and The Van Dorens - Trick Fiction
DYEAR=2006
DGENRE=Blues Rock
TTITLE0=Fritos, BBQ and Scotch
TTITLE1=Big Glass Building
TTITLE2=Suspicion
TTITLE3=Never Again
TTITLE4=Conspiracy
TTITLE5=Fear of Grief
TTITLE6=30Lbs. in 30 Days
TTITLE7=Wholly Rollin'
TTITLE8=Stake Out
TTITLE9=Times Have Changed
TTITLE10=Small Heaven
TTITLE11=Riverside Diner
EXTD=
EXTT0=
EXTT1=
EXTT2=
EXTT3=
EXTT4=
EXTT5=
EXTT6=
EXTT7=
EXTT8=
EXTT9=
EXTT10=
EXTT11=
PLAYORDER=
